<svg id="Layer_1" data-name="Layer 1" xmlns="http://www.w3.org/2000/svg" viewBox="0 0 24.03 14.79"><defs><style>.cls-1{fill:aqua;}</style></defs><title>Star_Training</title><path class="cls-1" d="M7.26,7v2h4.64A4.55,4.55,0,0,1,7.4,12.79a5.39,5.39,0,1,1,3.66-9.35l1.53-1.31A7.4,7.4,0,1,0,7.4,14.79c3.92,0,6.75-3,6.75-7.07V7Z"/><polygon class="cls-1" points="24.02 7.03 21.19 7.03 21.19 4.19 19.38 4.19 19.38 7.03 16.54 7.03 16.54 8.84 19.38 8.84 19.38 11.68 21.19 11.68 21.19 8.84 24.03 8.84 24.02 7.03"/></svg>