<svg id="Layer_1" data-name="Layer 1" xmlns="http://www.w3.org/2000/svg" viewBox="0 0 52.86 15.21"><defs><style>.cls-1{fill:aqua;}</style></defs><title>Star_Training</title><path class="cls-1" d="M5,1.81,2.13,5.11l4.31,5.25L2.21,15.21l-.9-1.43,3-3.41L0,5.16,4.13.34Z"/><path class="cls-1" d="M9.68,14.38l-1.58.34V1.32L9.68,1Z"/><path class="cls-1" d="M15.69,8.92,14.62,7.35h6.16l-5,7.85L11.38,7.66,16.29.34l.92,1.43-4,5.95,2.61,4.42,2-3.22Z"/><path class="cls-1" d="M28.47,1.32,30,1V14.38l-1.55.34V10.94l-4.4-6.1v9.54l-1.59.34V0l6,8.28Z"/><path class="cls-1" d="M41.92,12.59l-6,2.13V1.32L37.52,1V12.41l4.4-1.56V1.32L43.47,1V14.38l-1.55.34Z"/><path class="cls-1" d="M47.49,14.38l-1.58.34V.34l7,5L48.3,10.85V8.34L50.57,5.6,47.49,3.37Z"/></svg>