<svg id="Layer_1" data-name="Layer 1" xmlns="http://www.w3.org/2000/svg" viewBox="0 0 15.6 15.58"><defs><style>.cls-1{fill:aqua;}</style></defs><title>Star_Training</title><rect class="cls-1" x="0.34" y="5.19" width="3.21" height="10.38"/><path class="cls-1" d="M11.82,4.88A3.62,3.62,0,0,0,8.69,6.59V5.19H5.61V15.58H8.69V10.13c0-1.46.67-2.33,2-2.33s1.75.83,1.75,2.33v5.45h3.2V9C15.6,6.22,14,4.88,11.82,4.88Z"/><path class="cls-1" d="M1.9,0a1.92,1.92,0,0,0,0,3.83h0a1.89,1.89,0,0,0,1.9-1.91v0A1.91,1.91,0,0,0,1.9,0Z"/></svg>