<svg id="Layer_1" data-name="Layer 1" xmlns="http://www.w3.org/2000/svg" viewBox="0 0 14.84 14.84"><defs><style>.cls-1{fill:aqua;}</style></defs><title>Star_Training</title><circle class="cls-1" cx="11.38" cy="3.46" r="0.89"/><path class="cls-1" d="M7.42,3.61a3.81,3.81,0,1,0,3.81,3.81A3.8,3.8,0,0,0,7.42,3.61Zm0,6.28A2.47,2.47,0,1,1,7.42,5h0a2.47,2.47,0,1,1,0,4.94Z"/><path class="cls-1" d="M12.28.39A5.59,5.59,0,0,0,10.48,0C9.69,0,9.43,0,7.42,0S5.15,0,4.36,0a5.53,5.53,0,0,0-1.8.35A3.74,3.74,0,0,0,.39,2.56,5.53,5.53,0,0,0,0,4.36c0,.79,0,1,0,3.06s0,2.27,0,3.06a5.59,5.59,0,0,0,.35,1.8,3.8,3.8,0,0,0,2.17,2.17,5.52,5.52,0,0,0,1.8.34c.79,0,1,.05,3.06.05s2.27,0,3.06-.05a5.57,5.57,0,0,0,1.8-.34,3.86,3.86,0,0,0,2.17-2.17,5.57,5.57,0,0,0,.34-1.8h0c0-.79.05-1.05.05-3.06s0-2.27-.05-3.06a5.52,5.52,0,0,0-.34-1.8A3.8,3.8,0,0,0,12.28.39Zm1.18,10a4.27,4.27,0,0,1-.26,1.37,2.45,2.45,0,0,1-1.41,1.41,4.27,4.27,0,0,1-1.37.26c-.79,0-1,0-3,0s-2.22,0-3,0A4.33,4.33,0,0,1,3,13.2a2.48,2.48,0,0,1-1.41-1.41,4,4,0,0,1-.25-1.37c0-.79,0-1,0-3s0-2.22,0-3A4.06,4.06,0,0,1,1.63,3,2.46,2.46,0,0,1,3,1.64a4.07,4.07,0,0,1,1.38-.26c.78,0,1,0,3,0s2.21,0,3,0a4,4,0,0,1,1.37.26A2.43,2.43,0,0,1,13.2,3a4.33,4.33,0,0,1,.26,1.38c0,.78,0,1,0,3S13.49,9.63,13.46,10.42Z"/></svg>