<svg id="Layer_1" data-name="Layer 1" xmlns="http://www.w3.org/2000/svg" viewBox="0 0 148.27 142.93"><defs><style>.cls-1{fill:#f0be2c;}.cls-2{fill:#23c9bc;}</style></defs><title>Star_Training</title><path class="cls-1" d="M123.71,120.06S92.14,90.71,61,99.11a64.31,64.31,0,0,0-32.87,21H4.82L0,128.4H30.64S47.77,142.93,83,142.93c23.6,0,42.76-14.53,42.76-14.53h22.56l-4.82-8.34ZM75.94,138.87c-27.08-.4-42.16-13.36-42.16-13.36s1.82-6.12,11.3-12.83A45,45,0,0,1,61.94,105a13.08,13.08,0,0,0-4.39,9.21c-.6,9.87,6.59,18.35,16.06,18.94s17.63-6.93,18.24-16.8c.3-4.92-1.4-8.65-4.34-11.23,17.33,3.76,32.37,18,32.37,18S103,139.27,75.94,138.87Z"/><polygon class="cls-1" points="58.74 29.91 76.83 102.25 94.92 29.93 76 0 58.74 29.91"/><polygon class="cls-1" points="58.35 104.32 39.43 60.11 27.17 82.22 58.35 104.32"/><polygon class="cls-1" points="44.28 111.58 18.73 95.97 9.91 111.23 44.28 111.58"/><polygon class="cls-1" points="91.19 104.32 110.11 60.11 122.37 82.22 91.19 104.32"/><polygon class="cls-1" points="105.26 111.58 130.81 95.97 139.62 111.23 105.26 111.58"/><path class="cls-2" d="M74.18,118.44h6a27.5,27.5,0,0,0-.58-5.26c-1.54.13-3.35.22-5.46.24Z"/><path class="cls-2" d="M68,125.71a17.53,17.53,0,0,0,1.36,3.64,8.79,8.79,0,0,0,2.2,2.87,4.45,4.45,0,0,0,1.12.65l.53,0v-7.4C71.17,125.5,69.44,125.59,68,125.71Z"/><path class="cls-2" d="M80.22,119.45h-6v5c2.11,0,3.92.1,5.45.24A26.9,26.9,0,0,0,80.22,119.45Z"/><path class="cls-2" d="M81.23,119.45a28.67,28.67,0,0,1-.59,5.37,31.75,31.75,0,0,1,5.24.93,13.76,13.76,0,0,0,1.76-6.3Z"/><path class="cls-2" d="M80.41,125.81a19,19,0,0,1-1.31,3.66,11,11,0,0,1-2.06,3,14,14,0,0,0,8.29-5.85A33.87,33.87,0,0,0,80.41,125.81Z"/><path class="cls-2" d="M79.4,112.18A18,18,0,0,0,78,108.55a8.58,8.58,0,0,0-2.2-2.87,3.92,3.92,0,0,0-1.12-.65,4.89,4.89,0,0,0-.54,0v7.41C76.19,112.39,77.92,112.31,79.4,112.18Z"/><path class="cls-2" d="M78.94,108.09a19.17,19.17,0,0,1,1.47,4,32.51,32.51,0,0,0,4.92-.84A14,14,0,0,0,77,105.4,10.6,10.6,0,0,1,78.94,108.09Z"/><path class="cls-2" d="M81.23,118.44h6.41a13.73,13.73,0,0,0-1.76-6.3,31.42,31.42,0,0,1-5.24.94A28.47,28.47,0,0,1,81.23,118.44Z"/><path class="cls-2" d="M73.17,113.42c-2.1,0-3.91-.11-5.45-.24a27.5,27.5,0,0,0-.58,5.26h6Z"/><path class="cls-2" d="M72.64,105a7.29,7.29,0,0,0-3.48,3.83,19,19,0,0,0-1.2,3.32c1.48.13,3.21.21,5.21.23V105Z"/><path class="cls-2" d="M68.42,129.81a18.38,18.38,0,0,1-1.47-4,34.08,34.08,0,0,0-4.93.84A13.67,13.67,0,0,0,64,129a13.93,13.93,0,0,0,6.37,3.53A11,11,0,0,1,68.42,129.81Z"/><path class="cls-2" d="M78.2,129a19,19,0,0,0,1.2-3.32c-1.48-.12-3.21-.21-5.22-.22v7.4a4.58,4.58,0,0,0,.53,0C76,132.39,77.22,131.05,78.2,129Z"/><path class="cls-2" d="M66.13,119.45H59.71a14,14,0,0,0,1.76,6.3,32,32,0,0,1,5.24-.93A28.67,28.67,0,0,1,66.13,119.45Z"/><path class="cls-2" d="M73.17,124.48v-5h-6a27.52,27.52,0,0,0,.58,5.27C69.26,124.58,71.07,124.49,73.17,124.48Z"/><path class="cls-2" d="M66.13,118.44a28.47,28.47,0,0,1,.59-5.36,31.42,31.42,0,0,1-5.24-.94,13.9,13.9,0,0,0-1.77,6.3Z"/><path class="cls-2" d="M67,112.08a19.27,19.27,0,0,1,1.3-3.66,11,11,0,0,1,2.07-3A13.85,13.85,0,0,0,62,111.24,32.51,32.51,0,0,0,67,112.08Z"/></svg>