<svg id="Layer_1" data-name="Layer 1" xmlns="http://www.w3.org/2000/svg" viewBox="0 0 184.31 220.27"><defs><style>.cls-1{fill:aqua;}.cls-2{fill:#1b1464;}.cls-2,.cls-3,.cls-4,.cls-5,.cls-6{stroke:aqua;stroke-miterlimit:10;stroke-width:0.5px;}.cls-3{fill:#26609a;}.cls-4{fill:#29a9e0;}.cls-5{fill:#4a7fad;}.cls-6{fill:#094e8f;}</style></defs><title>Star_Training</title><g id="Group_7" data-name="Group 7"><path id="Path_28" data-name="Path 28" class="cls-1" d="M79.77,109.6a6.5,6.5,0,0,1-4.93,2,6.75,6.75,0,0,1-2.52-.43A6.94,6.94,0,0,1,70.16,110l-1.57,1.38H68v-6.51h1a9.26,9.26,0,0,0,2,4.22,5,5,0,0,0,4,1.76,4.91,4.91,0,0,0,3.5-1.31,4.23,4.23,0,0,0,1.44-3.24,3.31,3.31,0,0,0-1.6-3,17.41,17.41,0,0,0-4.25-1.7,8.79,8.79,0,0,1-4.45-2.38A6.23,6.23,0,0,1,68.2,95a6.12,6.12,0,0,1,1.66-4.42,5.84,5.84,0,0,1,4.29-1.73,8.13,8.13,0,0,1,2.55.39,7,7,0,0,1,2.19,1.21l1.25-1.27h.62v6.18H79.71a7.19,7.19,0,0,0-1.8-4.09,5,5,0,0,0-3.83-1.6,4.09,4.09,0,0,0-2.87,1.11A3.48,3.48,0,0,0,70,93.38a2.36,2.36,0,0,0,1.25,2.42,20.82,20.82,0,0,0,3.69,1.25c2.56.65,4.31,1.51,5.27,2.58a6.84,6.84,0,0,1,1.47,4.68A7.33,7.33,0,0,1,79.77,109.6Z"/><path id="Path_29" data-name="Path 29" class="cls-1" d="M100.35,111.14v-.82h1.7V98.71a14.65,14.65,0,0,0-.2-2.81,1,1,0,0,0-1.08-.92h-.26c-.78,0-1.5.53-2.16,1.6a9.26,9.26,0,0,0-1,4.84v8.9h1.8v.82h-7v-.82h1.67V98.71a10.18,10.18,0,0,0-.3-2.81A1.24,1.24,0,0,0,92.2,95h-.26c-.48,0-1.08.58-1.8,1.73a8.51,8.51,0,0,0-1.08,4.55v9.06h1.83v.82H83.3v-.82h2.23V94.82H83.3V94l5.7-.17v3.11a5.11,5.11,0,0,1,2-2.42,4.86,4.86,0,0,1,2.48-.72,3.81,3.81,0,0,1,2.59.76,4.32,4.32,0,0,1,1.34,2A6,6,0,0,1,99,94.65a4.39,4.39,0,0,1,2.68-.85,3.16,3.16,0,0,1,3.11,1.61,11.33,11.33,0,0,1,.82,5v9.94h2.16v.82Z"/><path id="Path_30" data-name="Path 30" class="cls-1" d="M122.5,111.14a3,3,0,0,1-1.77.49,2.34,2.34,0,0,1-1.83-.65,2.83,2.83,0,0,1-.75-1.64,7.35,7.35,0,0,1-2.33,1.77,6.22,6.22,0,0,1-2.48.55,2.89,2.89,0,0,1-2.49-1.18,5.58,5.58,0,0,1,.49-6.67,6.5,6.5,0,0,1,3.57-1.8q.36-.06.75-.09l.82-.07.82,0h.85V96.49a1.83,1.83,0,0,0-.69-1.44,2.45,2.45,0,0,0-1.51-.59,3.7,3.7,0,0,0-1.6.33c-.5.24-.75.45-.75.65a4.41,4.41,0,0,0,.26.59,2.67,2.67,0,0,1,.3,1.24,1.45,1.45,0,0,1-1.67,1.41c-1,0-1.58-.49-1.6-1.47a2.82,2.82,0,0,1,1.44-2.42,6.8,6.8,0,0,1,3.86-1A6.39,6.39,0,0,1,120,94.92a3.45,3.45,0,0,1,1.51,2.91v11.71a.52.52,0,0,0,.19.46.91.91,0,0,0,.59.19,1.09,1.09,0,0,0,.62-.29,2.7,2.7,0,0,1,.31-.28l.22-.18.39.46A8.55,8.55,0,0,1,122.5,111.14Zm-4.35-7.82a5.76,5.76,0,0,0-1-.59,1.48,1.48,0,0,0-.55-.09,4.12,4.12,0,0,0-.86.09,2.8,2.8,0,0,0-1.7,1.21,4.46,4.46,0,0,0-.62,2.52,5.86,5.86,0,0,0,.49,2.55,1.64,1.64,0,0,0,1.57,1,2.16,2.16,0,0,0,1.93-1.41,6.9,6.9,0,0,0,.76-3.27Z"/><path id="Path_31" data-name="Path 31" class="cls-1" d="M136.92,97.76h-.13c-1.07,0-1.63-.48-1.7-1.44l.13-1.08a.23.23,0,0,0-.06-.16l-.1,0-.1,0c-.85,0-1.63.88-2.35,2.62a16,16,0,0,0-1.08,6.09v6.57h2.94v.82h-8.41v-.82H128V94.82h-2.15V94l5.62-.17v3.64a8.07,8.07,0,0,1,2.16-2.78,4.19,4.19,0,0,1,2.59-.89,2.63,2.63,0,0,1,1.86.62,2.14,2.14,0,0,1,.69,1.57A1.64,1.64,0,0,1,136.92,97.76Z"/><path id="Path_32" data-name="Path 32" class="cls-1" d="M148.73,110.71a4,4,0,0,1-2.91.92,4.15,4.15,0,0,1-2.55-.59,2.4,2.4,0,0,1-.79-2.06V95h-2.09V94h2.09V91.25L146,90.4V94h3.07v1H146v13.94a1.9,1.9,0,0,0,.26,1.11,1.25,1.25,0,0,0,1,.32,1.64,1.64,0,0,0,1.27-.49,3.18,3.18,0,0,0,.76-1.24l.65.33A3.86,3.86,0,0,1,148.73,110.71Z"/><path id="Path_33" data-name="Path 33" class="cls-1" d="M80.15,122.72c-.26-1.79-.73-2.94-1.42-3.48a4,4,0,0,0-2.58-.84h-.6v14.13H78v.57h-7.7v-.57h2.4V118.4H72a4.06,4.06,0,0,0-2.58.82c-.69.57-1.16,1.73-1.42,3.5h-.73l.25-4.89h13.1l.25,4.89Z"/><path id="Path_34" data-name="Path 34" class="cls-1" d="M89.59,123.75H89.5c-.74,0-1.14-.34-1.19-1l.09-.75a.13.13,0,0,0,0-.12h-.14c-.59,0-1.14.61-1.64,1.83a11,11,0,0,0-.76,4.25v4.6h2.06v.57H82v-.57h1.35V121.69H81.84v-.57l3.93-.12v2.54a5.85,5.85,0,0,1,1.51-1.94,3,3,0,0,1,1.81-.62,1.81,1.81,0,0,1,1.3.44,1.43,1.43,0,0,1,.48,1.09,1.15,1.15,0,0,1-1.28,1.24Z"/><path id="Path_35" data-name="Path 35" class="cls-1" d="M100.18,133.1a2.07,2.07,0,0,1-1.23.34,1.63,1.63,0,0,1-1.28-.45,2,2,0,0,1-.53-1.15,5,5,0,0,1-1.62,1.24,4.36,4.36,0,0,1-1.74.38,2,2,0,0,1-1.74-.82,3.88,3.88,0,0,1,.34-4.66,4.44,4.44,0,0,1,2.5-1.26l.52-.07.57-.05a5.62,5.62,0,0,1,.57,0h.6v-3.73a1.29,1.29,0,0,0-.48-1,1.76,1.76,0,0,0-1-.41,2.68,2.68,0,0,0-1.12.23c-.35.17-.53.32-.53.46a3,3,0,0,0,.18.41,1.89,1.89,0,0,1,.21.87,1,1,0,0,1-1,1h-.13c-.74,0-1.11-.34-1.12-1a2,2,0,0,1,1-1.69,4.74,4.74,0,0,1,2.7-.68,4.47,4.47,0,0,1,2.65.77,2.41,2.41,0,0,1,1,2V132a.37.37,0,0,0,.14.32.61.61,0,0,0,.41.13.78.78,0,0,0,.44-.2,2.09,2.09,0,0,1,.22-.2l.14-.12.28.32A6.32,6.32,0,0,1,100.18,133.1Zm-3-5.47a3.85,3.85,0,0,0-.71-.41,1.28,1.28,0,0,0-.39-.07,3.81,3.81,0,0,0-.59.07,2,2,0,0,0-1.19.85,3.1,3.1,0,0,0-.44,1.76,4,4,0,0,0,.35,1.78,1.13,1.13,0,0,0,1.09.71,1.51,1.51,0,0,0,1.35-1,4.91,4.91,0,0,0,.53-2.29Z"/><path id="Path_36" data-name="Path 36" class="cls-1" d="M102.06,133.1v-.57h1.71V121.69h-1.65v-.57l4.12-.12v11.53h1.67v.57Zm3.86-13.47a1.31,1.31,0,0,1-2.22-.91,1.3,1.3,0,0,1,.39-.94,1.31,1.31,0,0,1,2.22.91A1.3,1.3,0,0,1,105.92,119.63Z"/><path id="Path_37" data-name="Path 37" class="cls-1" d="M115.18,133.1v-.57h1.44v-7c0-.59,0-1.11-.06-1.57a6.38,6.38,0,0,0-.17-1.15c-.17-.64-.51-1-1-1s-1.24.47-1.76,1.4a8.31,8.31,0,0,0-.8,4v5.31h1.44v.57h-5.42v-.57h1.56V121.69h-1.56v-.57l4-.12v2.18a3.62,3.62,0,0,1,1.51-1.7,3.93,3.93,0,0,1,1.9-.5,2.31,2.31,0,0,1,2.17,1.16,7.21,7.21,0,0,1,.64,3.43v7h1.47v.57Z"/><path id="Path_38" data-name="Path 38" class="cls-1" d="M121.36,133.1v-.57h1.71V121.69h-1.65v-.57l4.12-.12v11.53h1.67v.57Zm3.86-13.47a1.31,1.31,0,0,1-2.22-.91,1.3,1.3,0,0,1,.39-.94,1.31,1.31,0,0,1,2.22.91,1.3,1.3,0,0,1-.39.94Z"/><path id="Path_39" data-name="Path 39" class="cls-1" d="M134.48,133.1v-.57h1.44v-7c0-.59,0-1.11-.06-1.57a6.38,6.38,0,0,0-.17-1.15c-.17-.64-.51-1-1-1s-1.24.47-1.76,1.4a8.31,8.31,0,0,0-.8,4v5.31h1.44v.57h-5.42v-.57h1.56V121.69h-1.56v-.57l4-.12v2.18a3.62,3.62,0,0,1,1.51-1.7,3.93,3.93,0,0,1,1.9-.5,2.31,2.31,0,0,1,2.17,1.16,7.21,7.21,0,0,1,.64,3.43v7h1.46v.57Z"/><path id="Path_40" data-name="Path 40" class="cls-1" d="M150.33,122.4a.72.72,0,0,1-.51.25.7.7,0,0,1-.71-.37c-.12-.26-.24-.38-.36-.38a.62.62,0,0,0-.46.27,1.15,1.15,0,0,1-.14.17,1,1,0,0,0-.11.17,3.82,3.82,0,0,1,.66,2.24,4.15,4.15,0,0,1-.91,2.75,3.17,3.17,0,0,1-2.45,1.05,5.13,5.13,0,0,0-2.47.48,1.63,1.63,0,0,0-.89,1.53c0,.73.5,1.11,1.49,1.15l4.71.06a1.89,1.89,0,0,1,1.41.55,2.44,2.44,0,0,1,.55,1.74,3.91,3.91,0,0,1-1.44,3.2,5.36,5.36,0,0,1-3.54,1.19,4.94,4.94,0,0,1-2.81-.71,2,2,0,0,1-1.1-1.74,2,2,0,0,1,.52-1.44,5.87,5.87,0,0,1,1.17-.82c-1.13-.12-1.69-1-1.69-2.7a3.09,3.09,0,0,1,.59-2,3.36,3.36,0,0,1,1.62-1.05,2.7,2.7,0,0,1-.34-.25,4,4,0,0,1-.3-.28,3.56,3.56,0,0,1-1-2.6,4.09,4.09,0,0,1,1-2.82,3.29,3.29,0,0,1,2.49-1.07,3.18,3.18,0,0,1,2.45,1.1l.07.07a5.11,5.11,0,0,1,1-1,1.76,1.76,0,0,1,.87-.25,1,1,0,0,1,.64.23.78.78,0,0,1,.32.66A.92.92,0,0,1,150.33,122.4ZM149,134.15a2.62,2.62,0,0,0-1.26-.23q-1.09,0-2,0l-1.76-.08c-.52.12-.83.31-.94.57a3,3,0,0,0-.22,1.26,2.23,2.23,0,0,0,.59,1.55,2.44,2.44,0,0,0,1.92.69,5.38,5.38,0,0,0,2.79-.8,2.54,2.54,0,0,0,1.3-2.27A.69.69,0,0,0,149,134.15Zm-2.47-11c0-.43,0-.77-.07-1-.08-.49-.45-.73-1.12-.73s-1.06.24-1.15.73a5.69,5.69,0,0,0-.12,1c0,.42,0,.95,0,1.57s0,1.18,0,1.63.05.78.08,1c.09.5.46.75,1.12.75s1.1-.24,1.16-.71c0-.24.06-.58.08-1s0-1,0-1.65S146.5,123.6,146.49,123.18Z"/></g><path class="cls-2" d="M9.27,195.27c0-55.52,0-106.67,0-161.88l-9,.16c0,2.05,0,4.11.06,6.16q0,86.34,0,172.67c0,2.81-.49,5.18,3.94,5.16q46.91-.18,93.8,0c-32.18-.22-52.56-17.25-84.82-17.07C8.78,200.46,9.27,198.08,9.27,195.27Z"/><path class="cls-3" d="M23.21,181.62c0-49.34,0-111,0-161.21-4.51.06-9,.16-13.53.23,0,2.05.05,4.11.05,6.16,0,57.56,0,110.41,0,168,0,2.8-.49,5.18,3.94,5.16,32.37-.18,52.78,17,85.15,17.07a9.35,9.35,0,0,0,1.12-.06c-28.11-.83-44.83-30.9-73.23-30.74C22.77,186.22,23.21,184.11,23.21,181.62Z"/><path id="Path_26" data-name="Path 26" class="cls-4" d="M38,.47C43.11.39,48.25.25,53.39.25c24.16,0,39.34,32.19,63.5,32,3.88,0,6,.51,5.07,4.89-.33,3.69-.87,12.51-.93,16.2-.06,3.13-1,4.26-4.37,4.23-21-.17-33.33-28-54.18-30.91-3.06-.43-4.26-1.57-4.24,1.84.13,31.52.13,83.56,0,115.07,0,3.19.9,3.91,4,3.88,18.14-.14,24.31,43.69,42.45,43.48,3.58,0,4.2,1.07,3.72,4.25-.66,4.31-1,13.81-1.28,18.16-.12,2.12-.64,2.93-3,2.92-25-.08-38.08-48.89-63.1-48.75-3.43,0-3-1.82-3-4C38,119,38,49.73,38,5.24,38,3.65,38,2.06,38,.47Z"/><path class="cls-5" d="M116.79,57.33c-21.05-.17-33-26.77-54-30.27-3.05-.51-4.26-1.57-4.24,1.84,0,2.56,0,5.26,0,8.07,20.28,4,35.85,21.27,57.4,21.27,2.25,0,3.85-.82,4.47-2.28C119.83,56.91,118.79,57.35,116.79,57.33Z"/><path class="cls-5" d="M40.53,167.73c-3.42,0-3-1.82-3-4,0-43.35,0-110.24,0-154.8-4.64.05-9.28.16-13.92.23,0,1.82.05,3.65.05,5.48,0,51.11,0,115.49,0,166.61,0,2.49-.43,4.6,3.5,4.58,28.76-.16,45.54,30.67,74.29,30.76a6.3,6.3,0,0,0,1.48-.14C78.35,215.4,65.3,167.59,40.53,167.73Z"/><path id="Path_27-2" data-name="Path 27-2" class="cls-2" d="M145.45,32.15l38.54.13c0,60.46-.1,120.93.07,181.39,0,5-1.07,6.48-6.23,6.34-14.85-.38-29.71-.22-44.56-.06-3.26,0-4.25-.79-3.84-4.11.74-6.07,1.16-12.18,1.45-18.28.16-3.36,1.53-4.4,4.85-4.22,5.22.28,10.5-.24,15.71.17,4.51.35,5.84-.86,5.82-5.63-.23-38.62-.13-77.24-.13-115.86,0-3.32-.18-6.66.05-10,.22-3.12-1.11-3.72-4-3.76-9.84-.14-9.84-.25-9.07-10Z"/><path class="cls-3" d="M114.22,58.2c-20.65-1-35.88-17-55.6-20.86a13,13,0,0,0-.06,2.74q0,3,0,6.08C82.74,47.77,86.36,56,112.26,58.48a14.64,14.64,0,0,0,6.6-.62S118.5,58.18,114.22,58.2Z"/><path class="cls-6" d="M58.54,51q0,4,0,8c18.45.11,37.29.06,55.73.09A96.63,96.63,0,0,1,100.64,57C85.77,53.53,77,47.62,58.54,46.61,58.54,47.19,58.53,48.69,58.54,51Z"/></svg>